<html>
<head>
<meta charset="UTF-8">
<meta name="viewport" content="width=device-width, initial-scale=1.0"/>

<style>
.comment
{
    padding-left: 20px;
    margin-top: 4px;
    margin-right: 4px;
    margin-bottom: 4px;
    border: 2px #000 solid;
}
.submission
{
    border: 4px #00f solid;
    padding-left: 20px;
}
.hidden
{
    display: none;
}
</style>
</head>
<body><div class="submission" id="t3_7dadp3">
    <p class="userinfo">
        <a href="https://www.reddit.com/u/MrWifeSteal007">MrWifeSteal007</a>
        <span class="score"> | 19 points</span>
        <span class="timestamp"> | Nov 16 2017 05:44:37</span>
    </p>
    <strong>[TV][60FPS] Mr. Robot S03E06 720p E-AC-3 6CH x265 - N0 M3RcY (885 MB)</strong>
    <p><p><a href="https://mega.nz/#!AvQ0hLaT!xonpUeFT4rSe_AtfOCsLJaRebVp8qjQP9Co2hV562Ww">Link</a></p>
<p><strong>General</strong></p>
<p>Format                                   : Matroska
Format version                           : Version 4 / Version 2
File size                                : 885 MiB
Duration                                 : 45 min 38 s
Overall bit rate                         : 2 711 kb/s
Writing application                      : Lavf57.83.100
Writing library                          : Lavf57.83.100
ErrorDetectionType                       : Per level 1</p>
<p><strong>Video</strong></p>
<p>ID                                       : 1
Format                                   : HEVC
Format/Info                              : High Efficiency Video Coding
Format profile                           : Main@L5.2@High
Codec ID                                 : V_MPEGH/ISO/HEVC
Duration                                 : 45 min 38 s
Bit rate                                 : 2 017 kb/s
Width                                    : 1 280 pixels
Height                                   : 720 pixels
Display aspect ratio                     : 16:9
Frame rate mode                          : Constant
<strong>Frame rate                               : 59.940 (59940/1000) FPS</strong>
Standard                                 : Component
Color space                              : YUV
Chroma subsampling                       : 4:2:0
Bit depth                                : 8 bits
Bits/(Pixel*Frame)                       : 0.037
Stream size                              : 658 MiB (74%)
Default                                  : Yes
Forced                                   : No
Color range                              : Limited
Matrix coefficients                      : BT.709</p>
<p><strong>Audio</strong></p>
<p>ID                                       : 2
Format                                   : E-AC-3
Format/Info                              : Enhanced Audio Coding 3
Codec ID                                 : A_EAC3
Duration                                 : 45 min 38 s
Bit rate mode                            : Constant
Bit rate                                 : 640 kb/s
Channel(s)                               : 6 channels
Channel positions                        : Front: L C R, Side: L R, LFE
Sampling rate                            : 48.0 kHz
Frame rate                               : 187.500 FPS (256 SPF)
Bit depth                                : 32 bits
Compression mode                         : Lossy
Stream size                              : 209 MiB (24%)
Language                                 : English
Service kind                             : Complete Main
Default                                  : Yes
Forced                                   : No
Statistics Tags Issue                    : mkvmerge v7.3.0 ('Nouages') 64bit built on Oct 23 2014 13:14:01 2017-11-16 04:05:59 / Lavf57.83.100 
FromStats_BitRate                        : 640000
FromStats_Duration                       : 00:45:38.496000000
FromStats_FrameCount                     : 85578
FromStats_StreamSize                     : 219079680</p>
<p><strong>Text</strong></p>
<p>ID                                       : 3
Format                                   : UTF-8
Codec ID                                 : S_TEXT/UTF8
Codec ID/Info                            : UTF-8 Plain Text
Language                                 : English
Default                                  : No
Forced                                   : No
Statistics Tags Issue                    : mkvmerge v7.3.0 ('Nouages') 64bit built on Oct 23 2014 13:14:01 2017-11-16 04:05:59 / Lavf57.83.100 
FromStats_BitRate                        : 65
FromStats_Duration                       : 00:45:36.001000000
FromStats_FrameCount                     : 845
FromStats_StreamSize                     : 22390</p></p>
    <p class="toolbar">
        <a href="https://www.reddit.com/r/megalinks/comments/7dadp3">permalink</a>
    </p>
</div>

</body>

<script>
function toggle_collapse(comment_div)
{
    var button = comment_div.getElementsByClassName("toggle_hide_button")[0];
    var collapsible = comment_div.getElementsByClassName("collapsible")[0];
    if (collapsible.classList.contains("hidden"))
    {
        collapsible.classList.remove("hidden");
        button.innerText = "[-]";
    }
    else
    {
        collapsible.classList.add("hidden");
        button.innerText = "[+]";
    }
}
</script>
</html>
